# xmcd CD database file
#
# Track frame offsets:
#	150
#	10280
#	135315
#
# Disc length: 2907 seconds
#
# Revision: 0
# Processed by: cddbd v1.5.2PL0 Copyright (c) Steve Scherf et al.
# Submitted via: CDex 1.51
#
DISCID=1a0b5903
DTITLE=Wayne Shorter Quartet - Imani Winds - JazzBaltica 2008
DYEAR=2008
DGENRE=Jazz
TTITLE0=Imani Winds - Libertango
TTITLE1=Wayne Shorter Quartet - Zero Gravity - She Moved Through the Fair
TTITLE2=Wayne Shorter Quartet+Imani Winds - Pegasus
EXTD=YEAR: 2008
EXTT0=
EXTT1=
EXTT2=
PLAYORDER=
